<svg xmlns="http://www.w3.org/2000/svg" style="display:none" aria-hidden="true" id="motonimo-icons">
  <symbol id="ic-home" viewBox="0 0 24 24"><g fill="none" stroke="currentColor" stroke-width="1.6" stroke-linecap="round" stroke-linejoin="round"><path d="M4 11l8-6 8 6"/><path d="M6 10v9h12v-9"/><path d="M10 19v-5h4v5"/></g></symbol>
  <symbol id="ic-menu" viewBox="0 0 24 24"><g fill="none" stroke="currentColor" stroke-width="1.6" stroke-linecap="round" stroke-linejoin="round"><path d="M4 7h16M4 12h16M4 17h16"/></g></symbol>
  <symbol id="ic-close" viewBox="0 0 24 24"><g fill="none" stroke="currentColor" stroke-width="1.6" stroke-linecap="round" stroke-linejoin="round"><path d="M6 6l12 12M18 6L6 18"/></g></symbol>
  <symbol id="ic-arrow-left" viewBox="0 0 24 24"><g fill="none" stroke="currentColor" stroke-width="1.6" stroke-linecap="round" stroke-linejoin="round"><path d="M19 12H5"/><path d="M11 6l-6 6 6 6"/></g></symbol>
  <symbol id="ic-arrow-right" viewBox="0 0 24 24"><g fill="none" stroke="currentColor" stroke-width="1.6" stroke-linecap="round" stroke-linejoin="round"><path d="M5 12h14"/><path d="M13 6l6 6-6 6"/></g></symbol>
  <symbol id="ic-chevron-up" viewBox="0 0 24 24"><g fill="none" stroke="currentColor" stroke-width="1.6" stroke-linecap="round" stroke-linejoin="round"><path d="M6 15l6-6 6 6"/></g></symbol>
  <symbol id="ic-chevron-down" viewBox="0 0 24 24"><g fill="none" stroke="currentColor" stroke-width="1.6" stroke-linecap="round" stroke-linejoin="round"><path d="M6 9l6 6 6-6"/></g></symbol>
  <symbol id="ic-chevron-left" viewBox="0 0 24 24"><g fill="none" stroke="currentColor" stroke-width="1.6" stroke-linecap="round" stroke-linejoin="round"><path d="M15 6l-6 6 6 6"/></g></symbol>
  <symbol id="ic-chevron-right" viewBox="0 0 24 24"><g fill="none" stroke="currentColor" stroke-width="1.6" stroke-linecap="round" stroke-linejoin="round"><path d="M9 6l6 6-6 6"/></g></symbol>
  <symbol id="ic-sidebar" viewBox="0 0 24 24"><g fill="none" stroke="currentColor" stroke-width="1.6" stroke-linecap="round" stroke-linejoin="round"><path d="M4 5h16v14H4z"/><path d="M9 5v14"/></g></symbol>
  <symbol id="ic-external-link" viewBox="0 0 24 24"><g fill="none" stroke="currentColor" stroke-width="1.6" stroke-linecap="round" stroke-linejoin="round"><path d="M13 5h6v6"/><path d="M19 5l-9 9"/><path d="M18 13v5H6V6h5"/></g></symbol>
  <symbol id="ic-add" viewBox="0 0 24 24"><g fill="none" stroke="currentColor" stroke-width="1.6" stroke-linecap="round" stroke-linejoin="round"><path d="M8 5H6v14h2"/><path d="M16 5h2v14h-2"/><path d="M12 9v6"/><path d="M9 12h6"/></g></symbol>
  <symbol id="ic-edit" viewBox="0 0 24 24"><g fill="none" stroke="currentColor" stroke-width="1.6" stroke-linecap="round" stroke-linejoin="round"><path d="M4 20l1-4L16 5l3 3L8 19z"/><path d="M14 7l3 3"/></g></symbol>
  <symbol id="ic-delete" viewBox="0 0 24 24"><g fill="none" stroke="currentColor" stroke-width="1.6" stroke-linecap="round" stroke-linejoin="round"><path d="M5 7h14"/><path d="M9 7V5h6v2"/><path d="M7 7l1 12h8l1-12"/><path d="M10 10v6M14 10v6"/></g></symbol>
  <symbol id="ic-save" viewBox="0 0 24 24"><g fill="none" stroke="currentColor" stroke-width="1.6" stroke-linecap="round" stroke-linejoin="round"><path d="M5 5h11l3 3v11H5z"/><path d="M8 5v5h7V5"/><path d="M8 19v-5h8v5"/></g></symbol>
  <symbol id="ic-copy" viewBox="0 0 24 24"><g fill="none" stroke="currentColor" stroke-width="1.6" stroke-linecap="round" stroke-linejoin="round"><path d="M9 9h9v11H9z"/><path d="M6 15H4V4h11v2"/></g></symbol>
  <symbol id="ic-share" viewBox="0 0 24 24"><g fill="none" stroke="currentColor" stroke-width="1.6" stroke-linecap="round" stroke-linejoin="round"><circle cx="6" cy="12" r="2.5"/><circle cx="17" cy="6" r="2.5"/><circle cx="17" cy="18" r="2.5"/><path d="M8.2 11l6.6-3.6M8.2 13l6.6 3.6"/></g></symbol>
  <symbol id="ic-download" viewBox="0 0 24 24"><g fill="none" stroke="currentColor" stroke-width="1.6" stroke-linecap="round" stroke-linejoin="round"><path d="M12 4v11"/><path d="M8 11l4 4 4-4"/><path d="M5 19h14"/></g></symbol>
  <symbol id="ic-upload" viewBox="0 0 24 24"><g fill="none" stroke="currentColor" stroke-width="1.6" stroke-linecap="round" stroke-linejoin="round"><path d="M4 14v5h16v-5"/><path d="M12 14V4"/><path d="M8 8l4-4 4 4"/></g></symbol>
  <symbol id="ic-import" viewBox="0 0 24 24"><g fill="none" stroke="currentColor" stroke-width="1.6" stroke-linecap="round" stroke-linejoin="round"><path d="M4 14v5h16v-5"/><path d="M12 4v10"/><path d="M8 10l4 4 4-4"/></g></symbol>
  <symbol id="ic-refresh" viewBox="0 0 24 24"><g fill="none" stroke="currentColor" stroke-width="1.6" stroke-linecap="round" stroke-linejoin="round"><path d="M18 7a7 7 0 1 0 1.6 4.5"/><path d="M18 3v4h-4"/></g></symbol>
  <symbol id="ic-more" viewBox="0 0 24 24"><g fill="none" stroke="currentColor" stroke-width="1.6" stroke-linecap="round" stroke-linejoin="round"><circle cx="12" cy="5" r="1.3" fill="currentColor" stroke="none"/><circle cx="12" cy="12" r="1.3" fill="currentColor" stroke="none"/><circle cx="12" cy="19" r="1.3" fill="currentColor" stroke="none"/></g></symbol>
  <symbol id="ic-filter" viewBox="0 0 24 24"><g fill="none" stroke="currentColor" stroke-width="1.6" stroke-linecap="round" stroke-linejoin="round"><path d="M4 5h16l-6 7v7l-4-2v-5z"/></g></symbol>
  <symbol id="ic-search" viewBox="0 0 24 24"><g fill="none" stroke="currentColor" stroke-width="1.6" stroke-linecap="round" stroke-linejoin="round"><circle cx="10.5" cy="10.5" r="6"/><path d="M15 15l5 5"/></g></symbol>
  <symbol id="ic-settings" viewBox="0 0 24 24"><g fill="none" stroke="currentColor" stroke-width="1.6" stroke-linecap="round" stroke-linejoin="round"><circle cx="12" cy="12" r="3.2"/><path d="M12 2.5v2.6M12 18.9v2.6M2.5 12h2.6M18.9 12h2.6M5.2 5.2l1.9 1.9M16.9 16.9l1.9 1.9M18.8 5.2L16.9 7.1M7.1 16.9L5.2 18.8"/></g></symbol>
  <symbol id="ic-check" viewBox="0 0 24 24"><g fill="none" stroke="currentColor" stroke-width="1.6" stroke-linecap="round" stroke-linejoin="round"><path d="M5 12l4 4 10-10"/></g></symbol>
  <symbol id="ic-warning" viewBox="0 0 24 24"><g fill="none" stroke="currentColor" stroke-width="1.6" stroke-linecap="round" stroke-linejoin="round"><path d="M12 4l9 16H3z"/><path d="M12 10v5"/><circle cx="12" cy="17.6" r="0.9" fill="currentColor" stroke="none"/></g></symbol>
  <symbol id="ic-info" viewBox="0 0 24 24"><g fill="none" stroke="currentColor" stroke-width="1.6" stroke-linecap="round" stroke-linejoin="round"><circle cx="12" cy="12" r="8"/><path d="M12 11v5"/><circle cx="12" cy="8" r="0.9" fill="currentColor" stroke="none"/></g></symbol>
  <symbol id="ic-error" viewBox="0 0 24 24"><g fill="none" stroke="currentColor" stroke-width="1.6" stroke-linecap="round" stroke-linejoin="round"><circle cx="12" cy="12" r="8"/><path d="M9 9l6 6M15 9l-6 6"/></g></symbol>
  <symbol id="ic-help" viewBox="0 0 24 24"><g fill="none" stroke="currentColor" stroke-width="1.6" stroke-linecap="round" stroke-linejoin="round"><circle cx="12" cy="12" r="8"/><path d="M9.6 9.4a2.5 2.5 0 1 1 3.4 2.4c-.8.4-1 .9-1 1.6"/><circle cx="12" cy="16" r="0.9" fill="currentColor" stroke="none"/></g></symbol>
  <symbol id="ic-user" viewBox="0 0 24 24"><g fill="none" stroke="currentColor" stroke-width="1.6" stroke-linecap="round" stroke-linejoin="round"><circle cx="12" cy="8" r="3.2"/><path d="M5 20c0-3.5 3-5.5 7-5.5s7 2 7 5.5"/></g></symbol>
  <symbol id="ic-bell" viewBox="0 0 24 24"><g fill="none" stroke="currentColor" stroke-width="1.6" stroke-linecap="round" stroke-linejoin="round"><path d="M6 16V11a6 6 0 0 1 12 0v5l2 2H4z"/><path d="M10 21a2 2 0 0 0 4 0"/></g></symbol>
  <symbol id="ic-mail" viewBox="0 0 24 24"><g fill="none" stroke="currentColor" stroke-width="1.6" stroke-linecap="round" stroke-linejoin="round"><path d="M4 6h16v12H4z"/><path d="M4 7l8 6 8-6"/></g></symbol>
  <symbol id="ic-lock" viewBox="0 0 24 24"><g fill="none" stroke="currentColor" stroke-width="1.6" stroke-linecap="round" stroke-linejoin="round"><path d="M6 11h12v9H6z"/><path d="M8 11V8a4 4 0 0 1 8 0v3"/><path d="M12 15v2"/></g></symbol>
  <symbol id="ic-eye" viewBox="0 0 24 24"><g fill="none" stroke="currentColor" stroke-width="1.6" stroke-linecap="round" stroke-linejoin="round"><path d="M2 12s3.5-6 10-6 10 6 10 6-3.5 6-10 6-10-6-10-6z"/><circle cx="12" cy="12" r="2.6"/></g></symbol>
  <symbol id="ic-eye-off" viewBox="0 0 24 24"><g fill="none" stroke="currentColor" stroke-width="1.6" stroke-linecap="round" stroke-linejoin="round"><path d="M4 5l16 14"/><path d="M6.7 7C3.9 8.6 2 12 2 12s3.5 6 10 6c1.7 0 3.2-.4 4.4-1"/><path d="M9.9 5.3A10 10 0 0 1 12 5c6.5 0 10 6 10 6a18 18 0 0 1-2.3 2.9"/><path d="M9.6 9.7a2.6 2.6 0 0 0 3.6 3.6"/></g></symbol>
  <symbol id="ic-clock" viewBox="0 0 24 24"><g fill="none" stroke="currentColor" stroke-width="1.6" stroke-linecap="round" stroke-linejoin="round"><circle cx="12" cy="12" r="8"/><path d="M12 7v5l3 2"/></g></symbol>
  <symbol id="ic-file" viewBox="0 0 24 24"><g fill="none" stroke="currentColor" stroke-width="1.6" stroke-linecap="round" stroke-linejoin="round"><path d="M6 3h9l4 4v14H6z"/><path d="M15 3v4h4"/></g></symbol>
  <symbol id="ic-folder" viewBox="0 0 24 24"><g fill="none" stroke="currentColor" stroke-width="1.6" stroke-linecap="round" stroke-linejoin="round"><path d="M4 6h6l2 2h8v11H4z"/></g></symbol>
  <symbol id="ic-tag" viewBox="0 0 24 24"><g fill="none" stroke="currentColor" stroke-width="1.6" stroke-linecap="round" stroke-linejoin="round"><path d="M4 4h7l9 9-7 7-9-9z"/><circle cx="8" cy="8" r="1.2"/></g></symbol>
  <symbol id="ic-link" viewBox="0 0 24 24"><g fill="none" stroke="currentColor" stroke-width="1.6" stroke-linecap="round" stroke-linejoin="round"><path d="M9 15l6-6"/><path d="M11 6l1.6-1.6a3.5 3.5 0 0 1 5 5L15 12"/><path d="M13 18l-1.6 1.6a3.5 3.5 0 0 1-5-5L9 12"/></g></symbol>
  <symbol id="ic-pin" viewBox="0 0 24 24"><g fill="none" stroke="currentColor" stroke-width="1.6" stroke-linecap="round" stroke-linejoin="round"><path d="M12 21s6-5.5 6-11a6 6 0 0 0-12 0c0 5.5 6 11 6 11z"/><circle cx="12" cy="10" r="2.4"/></g></symbol>
  <symbol id="ic-calendar" viewBox="0 0 24 24"><g fill="none" stroke="currentColor" stroke-width="1.6" stroke-linecap="round" stroke-linejoin="round"><path d="M4 6h16v14H4z"/><path d="M4 10h16"/><path d="M8 3v4M16 3v4"/><circle cx="12" cy="15" r="1.2" fill="currentColor" stroke="none"/></g></symbol>
  <symbol id="ic-note" viewBox="0 0 24 24"><g fill="none" stroke="currentColor" stroke-width="1.6" stroke-linecap="round" stroke-linejoin="round"><path d="M6 3h9l4 4v14H6z"/><path d="M15 3v4h4"/><path d="M9 12h6M9 15h6M9 18h4"/></g></symbol>
  <symbol id="ic-sun" viewBox="0 0 24 24"><g fill="none" stroke="currentColor" stroke-width="1.6" stroke-linecap="round" stroke-linejoin="round"><circle cx="12" cy="12" r="4"/><path d="M12 2v2.5M12 19.5V22M2 12h2.5M19.5 12H22M5 5l1.8 1.8M17.2 17.2L19 19M5 19l1.8-1.8M17.2 6.8L19 5"/></g></symbol>
  <symbol id="ic-moon" viewBox="0 0 24 24"><g fill="none" stroke="currentColor" stroke-width="1.6" stroke-linecap="round" stroke-linejoin="round"><path d="M20 14a8 8 0 0 1-10-10 8 8 0 1 0 10 10z"/></g></symbol>
  <symbol id="ic-grid" viewBox="0 0 24 24"><g fill="none" stroke="currentColor" stroke-width="1.6" stroke-linecap="round" stroke-linejoin="round"><path d="M4 4h7v7H4zM13 4h7v7h-7zM4 13h7v7H4zM13 13h7v7h-7z"/></g></symbol>
  <symbol id="ic-list" viewBox="0 0 24 24"><g fill="none" stroke="currentColor" stroke-width="1.6" stroke-linecap="round" stroke-linejoin="round"><path d="M8 6h12M8 12h12M8 18h12"/><circle cx="4.5" cy="6" r="1.1" fill="currentColor" stroke="none"/><circle cx="4.5" cy="12" r="1.1" fill="currentColor" stroke="none"/><circle cx="4.5" cy="18" r="1.1" fill="currentColor" stroke="none"/></g></symbol>
  <symbol id="ic-chart" viewBox="0 0 24 24"><g fill="none" stroke="currentColor" stroke-width="1.6" stroke-linecap="round" stroke-linejoin="round"><path d="M4 4v16h16"/><path d="M8 20v-5M12 20v-9M16 20v-6"/></g></symbol>
  <symbol id="ic-forecast" viewBox="0 0 24 24"><g fill="none" stroke="currentColor" stroke-width="1.6" stroke-linecap="round" stroke-linejoin="round"><path d="M4 4v16h16"/><path d="M6 15l4-4 3 2 5-6"/><path d="M15 7h3v3"/></g></symbol>
  <symbol id="ic-reconcile" viewBox="0 0 24 24"><g fill="none" stroke="currentColor" stroke-width="1.6" stroke-linecap="round" stroke-linejoin="round"><path d="M4 9h14"/><path d="M15 6l3 3-3 3"/><path d="M20 15H6"/><path d="M9 12l-3 3 3 3"/></g></symbol>
  <symbol id="ic-sliders" viewBox="0 0 24 24"><g fill="none" stroke="currentColor" stroke-width="1.6" stroke-linecap="round" stroke-linejoin="round"><path d="M4 7h16M4 12h16M4 17h16"/><circle cx="9" cy="7" r="2"/><circle cx="15" cy="12" r="2"/><circle cx="8" cy="17" r="2"/></g></symbol>
  <symbol id="mn-mission-log" viewBox="0 0 24 24"><g fill="none" stroke="currentColor" stroke-width="1.6" stroke-linecap="round" stroke-linejoin="round"><path d="M4 6h4v4H4z"/><path d="M4.8 8l1.2 1.2 2-2.4"/><path d="M11 8h9"/><path d="M4 14h4v4H4z"/><path d="M11 16h9"/></g></symbol>
  <symbol id="mn-financial-archives" viewBox="0 0 24 24"><g fill="none" stroke="currentColor" stroke-width="1.6" stroke-linecap="round" stroke-linejoin="round"><path d="M5 4h11a3 3 0 0 1 3 3v13H8a3 3 0 0 1-3-3z"/><path d="M5 17a3 3 0 0 1 3-3h11"/><path d="M9 8h6M9 11h4"/></g></symbol>
  <symbol id="mn-star-chart" viewBox="0 0 24 24"><g fill="none" stroke="currentColor" stroke-width="1.6" stroke-linecap="round" stroke-linejoin="round"><path d="M12 3l2.3 6.3H21l-5.3 3.9 2 6.3-5.7-4-5.7 4 2-6.3L3 9.3h6.7z"/></g></symbol>
  <symbol id="mn-davinci" viewBox="0 0 24 24"><g fill="none" stroke="currentColor" stroke-width="1.6" stroke-linecap="round" stroke-linejoin="round"><circle cx="12" cy="6" r="1.6"/><path d="M11 7.3L7.5 19"/><path d="M13 7.3L16.5 19"/><path d="M6.7 19h1.6M15.7 19h1.6"/></g></symbol>
  <symbol id="mn-crossfit" viewBox="0 0 24 24"><g fill="none" stroke="currentColor" stroke-width="1.6" stroke-linecap="round" stroke-linejoin="round"><path d="M3 12h18"/><path d="M6 9v6M8 8v8"/><path d="M18 8v8M16 9v6"/></g></symbol>
  <symbol id="mn-lootdrop" viewBox="0 0 24 24"><g fill="none" stroke="currentColor" stroke-width="1.6" stroke-linecap="round" stroke-linejoin="round"><path d="M12 3l2.2 2.2L12 7.4 9.8 5.2z"/><path d="M5 9h14v10H5z"/><path d="M5 12h14"/><path d="M11 12v3h2v-3"/></g></symbol>
  <symbol id="mn-build" viewBox="0 0 24 24"><g fill="none" stroke="currentColor" stroke-width="1.6" stroke-linecap="round" stroke-linejoin="round"><path d="M8 5H6v14h2"/><path d="M16 5h2v14h-2"/><path d="M12 8l3 1.7v3.6L12 15l-3-1.7V9.7z"/></g></symbol>
  <symbol id="mn-personal" viewBox="0 0 24 24"><g fill="none" stroke="currentColor" stroke-width="1.6" stroke-linecap="round" stroke-linejoin="round"><circle cx="12" cy="12" r="8"/><path d="M12 2v3M12 19v3M2 12h3M19 12h3"/><circle cx="12" cy="10.3" r="2.3"/><path d="M8 16c0-2.2 1.8-3.3 4-3.3s4 1.1 4 3.3"/></g></symbol>
</svg>
